<mxfile host="app.diagrams.net" modified="2022-01-27T03:41:01.419Z" agent="5.0 (Macintosh; Intel Mac OS X 10_15_7) AppleWebKit/537.36 (KHTML, like Gecko) Chrome/97.0.4692.99 Safari/537.36" etag="HL73BF5T4e1BUYOqQt2T" version="16.3.0" type="github" pages="4">
  <diagram id="uzYgXNLk8vOwlSJOuMBN" name="EOC ECP">
    <mxGraphModel dx="946" dy="562" grid="1" gridSize="10" guides="1" tooltips="1" connect="1" arrows="1" fold="1" page="1" pageScale="1" pageWidth="827" pageHeight="1169" math="0" shadow="0">
      <root>
        <mxCell id="0" />
        <mxCell id="1" parent="0" />
        <mxCell id="g3xbw2xC6-WzQeamd73d-1" value="" style="endArrow=none;html=1;rounded=0;" parent="1" edge="1">
          <mxGeometry width="50" height="50" relative="1" as="geometry">
            <mxPoint x="119" y="340" as="sourcePoint" />
            <mxPoint x="709" y="340" as="targetPoint" />
          </mxGeometry>
        </mxCell>
        <mxCell id="g3xbw2xC6-WzQeamd73d-2" value="" style="endArrow=none;html=1;rounded=0;" parent="1" edge="1">
          <mxGeometry width="50" height="50" relative="1" as="geometry">
            <mxPoint x="390" y="650" as="sourcePoint" />
            <mxPoint x="390" y="90" as="targetPoint" />
          </mxGeometry>
        </mxCell>
        <mxCell id="g3xbw2xC6-WzQeamd73d-3" value="独立客户-部署-容器" style="text;html=1;strokeColor=none;fillColor=none;align=center;verticalAlign=middle;whiteSpace=wrap;rounded=0;" parent="1" vertex="1">
          <mxGeometry x="170" y="180" width="150" height="70" as="geometry" />
        </mxCell>
        <mxCell id="g3xbw2xC6-WzQeamd73d-4" value="独立客户-运维-容器" style="text;html=1;strokeColor=none;fillColor=none;align=center;verticalAlign=middle;whiteSpace=wrap;rounded=0;" parent="1" vertex="1">
          <mxGeometry x="490" y="170" width="150" height="70" as="geometry" />
        </mxCell>
        <mxCell id="g3xbw2xC6-WzQeamd73d-5" value="enos客户-部署-容器" style="text;html=1;strokeColor=none;fillColor=none;align=center;verticalAlign=middle;whiteSpace=wrap;rounded=0;" parent="1" vertex="1">
          <mxGeometry x="180" y="350" width="150" height="70" as="geometry" />
        </mxCell>
        <mxCell id="g3xbw2xC6-WzQeamd73d-6" value="enos客户-运维-容器" style="text;html=1;strokeColor=none;fillColor=none;align=center;verticalAlign=middle;whiteSpace=wrap;rounded=0;" parent="1" vertex="1">
          <mxGeometry x="490" y="350" width="150" height="70" as="geometry" />
        </mxCell>
        <mxCell id="g3xbw2xC6-WzQeamd73d-7" value="独立客户-部署-非容器" style="text;html=1;strokeColor=none;fillColor=none;align=center;verticalAlign=middle;whiteSpace=wrap;rounded=0;" parent="1" vertex="1">
          <mxGeometry x="170" y="240" width="150" height="70" as="geometry" />
        </mxCell>
        <mxCell id="g3xbw2xC6-WzQeamd73d-8" value="独立客户-运维-非容器" style="text;html=1;strokeColor=none;fillColor=none;align=center;verticalAlign=middle;whiteSpace=wrap;rounded=0;" parent="1" vertex="1">
          <mxGeometry x="490" y="240" width="150" height="70" as="geometry" />
        </mxCell>
        <mxCell id="g3xbw2xC6-WzQeamd73d-9" value="enos客户-部署-非容器" style="text;html=1;strokeColor=none;fillColor=none;align=center;verticalAlign=middle;whiteSpace=wrap;rounded=0;" parent="1" vertex="1">
          <mxGeometry x="180" y="420" width="150" height="70" as="geometry" />
        </mxCell>
        <mxCell id="g3xbw2xC6-WzQeamd73d-10" value="enos客户-运维-非容器" style="text;html=1;strokeColor=none;fillColor=none;align=center;verticalAlign=middle;whiteSpace=wrap;rounded=0;" parent="1" vertex="1">
          <mxGeometry x="490" y="420" width="150" height="70" as="geometry" />
        </mxCell>
        <mxCell id="g3xbw2xC6-WzQeamd73d-11" value="NEW" style="text;html=1;strokeColor=none;fillColor=none;align=center;verticalAlign=middle;whiteSpace=wrap;rounded=0;" parent="1" vertex="1">
          <mxGeometry x="130" y="200" width="60" height="30" as="geometry" />
        </mxCell>
        <mxCell id="g3xbw2xC6-WzQeamd73d-12" value="NEW" style="text;html=1;strokeColor=none;fillColor=none;align=center;verticalAlign=middle;whiteSpace=wrap;rounded=0;" parent="1" vertex="1">
          <mxGeometry x="130" y="260" width="60" height="30" as="geometry" />
        </mxCell>
        <mxCell id="g3xbw2xC6-WzQeamd73d-13" value="NEW" style="text;html=1;strokeColor=none;fillColor=none;align=center;verticalAlign=middle;whiteSpace=wrap;rounded=0;" parent="1" vertex="1">
          <mxGeometry x="450" y="190" width="60" height="30" as="geometry" />
        </mxCell>
        <mxCell id="g3xbw2xC6-WzQeamd73d-14" value="NEW" style="text;html=1;strokeColor=none;fillColor=none;align=center;verticalAlign=middle;whiteSpace=wrap;rounded=0;" parent="1" vertex="1">
          <mxGeometry x="450" y="260" width="60" height="30" as="geometry" />
        </mxCell>
        <mxCell id="g3xbw2xC6-WzQeamd73d-15" value="NEW" style="text;html=1;strokeColor=none;fillColor=none;align=center;verticalAlign=middle;whiteSpace=wrap;rounded=0;" parent="1" vertex="1">
          <mxGeometry x="140" y="370" width="60" height="30" as="geometry" />
        </mxCell>
        <mxCell id="g3xbw2xC6-WzQeamd73d-16" value="" style="endArrow=none;html=1;rounded=0;" parent="1" edge="1">
          <mxGeometry width="50" height="50" relative="1" as="geometry">
            <mxPoint x="90" y="500" as="sourcePoint" />
            <mxPoint x="680" y="500" as="targetPoint" />
          </mxGeometry>
        </mxCell>
        <mxCell id="g3xbw2xC6-WzQeamd73d-17" value="远景digital-部署-容器" style="text;html=1;strokeColor=none;fillColor=none;align=center;verticalAlign=middle;whiteSpace=wrap;rounded=0;" parent="1" vertex="1">
          <mxGeometry x="170" y="515" width="150" height="70" as="geometry" />
        </mxCell>
        <mxCell id="g3xbw2xC6-WzQeamd73d-18" value="远景digital-部署-非容器" style="text;html=1;strokeColor=none;fillColor=none;align=center;verticalAlign=middle;whiteSpace=wrap;rounded=0;" parent="1" vertex="1">
          <mxGeometry x="170" y="585" width="150" height="70" as="geometry" />
        </mxCell>
        <mxCell id="g3xbw2xC6-WzQeamd73d-19" value="远景digital内部-运维-容器" style="text;html=1;strokeColor=none;fillColor=none;align=center;verticalAlign=middle;whiteSpace=wrap;rounded=0;" parent="1" vertex="1">
          <mxGeometry x="490" y="515" width="150" height="70" as="geometry" />
        </mxCell>
        <mxCell id="g3xbw2xC6-WzQeamd73d-20" value="远景digital内部-运维-非容器" style="text;html=1;strokeColor=none;fillColor=none;align=center;verticalAlign=middle;whiteSpace=wrap;rounded=0;" parent="1" vertex="1">
          <mxGeometry x="480" y="580" width="170" height="70" as="geometry" />
        </mxCell>
        <mxCell id="g3xbw2xC6-WzQeamd73d-21" value="NEW" style="text;html=1;strokeColor=none;fillColor=none;align=center;verticalAlign=middle;whiteSpace=wrap;rounded=0;" parent="1" vertex="1">
          <mxGeometry x="140" y="440" width="60" height="30" as="geometry" />
        </mxCell>
        <mxCell id="g3xbw2xC6-WzQeamd73d-22" value="NEW" style="text;html=1;strokeColor=none;fillColor=none;align=center;verticalAlign=middle;whiteSpace=wrap;rounded=0;" parent="1" vertex="1">
          <mxGeometry x="130" y="535" width="60" height="30" as="geometry" />
        </mxCell>
        <mxCell id="g3xbw2xC6-WzQeamd73d-23" value="NEW" style="text;html=1;strokeColor=none;fillColor=none;align=center;verticalAlign=middle;whiteSpace=wrap;rounded=0;" parent="1" vertex="1">
          <mxGeometry x="130" y="605" width="60" height="30" as="geometry" />
        </mxCell>
        <mxCell id="g3xbw2xC6-WzQeamd73d-24" value="EOC" style="text;html=1;strokeColor=none;fillColor=none;align=center;verticalAlign=middle;whiteSpace=wrap;rounded=0;" parent="1" vertex="1">
          <mxGeometry x="430" y="370" width="60" height="30" as="geometry" />
        </mxCell>
        <mxCell id="g3xbw2xC6-WzQeamd73d-25" value="无New部署成本40W&lt;br&gt;有NEW部署成本5W&lt;br&gt;&lt;br&gt;15W=研发费用" style="text;html=1;strokeColor=none;fillColor=none;align=center;verticalAlign=middle;whiteSpace=wrap;rounded=0;" parent="1" vertex="1">
          <mxGeometry x="40" y="60" width="170" height="80" as="geometry" />
        </mxCell>
        <mxCell id="g3xbw2xC6-WzQeamd73d-26" value="运维成本80W&lt;br&gt;&lt;br&gt;20W=研发费用" style="text;html=1;strokeColor=none;fillColor=none;align=center;verticalAlign=middle;whiteSpace=wrap;rounded=0;" parent="1" vertex="1">
          <mxGeometry x="650" y="60" width="160" height="80" as="geometry" />
        </mxCell>
        <mxCell id="g3xbw2xC6-WzQeamd73d-29" value="EOC" style="text;html=1;strokeColor=none;fillColor=none;align=center;verticalAlign=middle;whiteSpace=wrap;rounded=0;" parent="1" vertex="1">
          <mxGeometry x="430" y="440" width="60" height="30" as="geometry" />
        </mxCell>
        <mxCell id="g3xbw2xC6-WzQeamd73d-30" value="EOC" style="text;html=1;strokeColor=none;fillColor=none;align=center;verticalAlign=middle;whiteSpace=wrap;rounded=0;" parent="1" vertex="1">
          <mxGeometry x="420" y="535" width="60" height="30" as="geometry" />
        </mxCell>
        <mxCell id="g3xbw2xC6-WzQeamd73d-31" value="EOC" style="text;html=1;strokeColor=none;fillColor=none;align=center;verticalAlign=middle;whiteSpace=wrap;rounded=0;" parent="1" vertex="1">
          <mxGeometry x="420" y="600" width="60" height="30" as="geometry" />
        </mxCell>
      </root>
    </mxGraphModel>
  </diagram>
  <diagram id="lqnK5ftc4Sjxskn-_I2I" name="CMDB">
    <mxGraphModel dx="1261" dy="795" grid="1" gridSize="10" guides="1" tooltips="1" connect="1" arrows="1" fold="1" page="1" pageScale="1" pageWidth="827" pageHeight="1169" math="0" shadow="0">
      <root>
        <mxCell id="vFeSSWeZ5WAn9ENOsXQQ-0" />
        <mxCell id="vFeSSWeZ5WAn9ENOsXQQ-1" parent="vFeSSWeZ5WAn9ENOsXQQ-0" />
        <mxCell id="vFeSSWeZ5WAn9ENOsXQQ-2" value="Chart XYZ&lt;br&gt;name:version" style="rounded=0;whiteSpace=wrap;html=1;" parent="vFeSSWeZ5WAn9ENOsXQQ-1" vertex="1">
          <mxGeometry x="70" y="90" width="200" height="60" as="geometry" />
        </mxCell>
        <mxCell id="vFeSSWeZ5WAn9ENOsXQQ-3" value="subchartA&lt;br&gt;app name:app version:namespace&lt;br&gt;Parent: XYZ" style="rounded=0;whiteSpace=wrap;html=1;" parent="vFeSSWeZ5WAn9ENOsXQQ-1" vertex="1">
          <mxGeometry x="70" y="160" width="200" height="60" as="geometry" />
        </mxCell>
        <mxCell id="vFeSSWeZ5WAn9ENOsXQQ-8" value="subchartC&lt;br&gt;app name:app version:namespace&lt;br&gt;Parent: XYZ" style="rounded=0;whiteSpace=wrap;html=1;" parent="vFeSSWeZ5WAn9ENOsXQQ-1" vertex="1">
          <mxGeometry x="70" y="320" width="200" height="60" as="geometry" />
        </mxCell>
        <mxCell id="vFeSSWeZ5WAn9ENOsXQQ-9" value="subchartB&lt;br&gt;app name:app version:namespace&lt;br&gt;Parent: XYZ" style="rounded=0;whiteSpace=wrap;html=1;" parent="vFeSSWeZ5WAn9ENOsXQQ-1" vertex="1">
          <mxGeometry x="70" y="240" width="200" height="60" as="geometry" />
        </mxCell>
        <mxCell id="vFeSSWeZ5WAn9ENOsXQQ-11" value="Deployment&lt;br&gt;app name:app version:namespace&lt;br&gt;Parent: null" style="rounded=0;whiteSpace=wrap;html=1;" parent="vFeSSWeZ5WAn9ENOsXQQ-1" vertex="1">
          <mxGeometry x="300" y="90" width="200" height="60" as="geometry" />
        </mxCell>
        <mxCell id="vFeSSWeZ5WAn9ENOsXQQ-13" value="Chart XYZ&lt;br&gt;name:version" style="rounded=0;whiteSpace=wrap;html=1;" parent="vFeSSWeZ5WAn9ENOsXQQ-1" vertex="1">
          <mxGeometry x="520" y="90" width="200" height="60" as="geometry" />
        </mxCell>
        <mxCell id="vFeSSWeZ5WAn9ENOsXQQ-14" value="subchartA&lt;br&gt;app name:app version:namespace&lt;br&gt;Parent: XYZ" style="rounded=0;whiteSpace=wrap;html=1;" parent="vFeSSWeZ5WAn9ENOsXQQ-1" vertex="1">
          <mxGeometry x="520" y="160" width="200" height="60" as="geometry" />
        </mxCell>
        <mxCell id="vFeSSWeZ5WAn9ENOsXQQ-15" value="subchartC&lt;br&gt;app name:app version:namespace&lt;br&gt;Parent: XYZ" style="rounded=0;whiteSpace=wrap;html=1;" parent="vFeSSWeZ5WAn9ENOsXQQ-1" vertex="1">
          <mxGeometry x="520" y="320" width="200" height="60" as="geometry" />
        </mxCell>
        <mxCell id="vFeSSWeZ5WAn9ENOsXQQ-16" value="subchartB&lt;br&gt;app name:app version:namespace&lt;br&gt;Parent: XYZ" style="rounded=0;whiteSpace=wrap;html=1;" parent="vFeSSWeZ5WAn9ENOsXQQ-1" vertex="1">
          <mxGeometry x="520" y="240" width="200" height="60" as="geometry" />
        </mxCell>
        <mxCell id="vFeSSWeZ5WAn9ENOsXQQ-17" value="Chart deployment" style="rounded=1;whiteSpace=wrap;html=1;" parent="vFeSSWeZ5WAn9ENOsXQQ-1" vertex="1">
          <mxGeometry x="70" y="20" width="200" height="60" as="geometry" />
        </mxCell>
        <mxCell id="vFeSSWeZ5WAn9ENOsXQQ-18" value="Rolling update" style="rounded=1;whiteSpace=wrap;html=1;" parent="vFeSSWeZ5WAn9ENOsXQQ-1" vertex="1">
          <mxGeometry x="300" y="20" width="200" height="60" as="geometry" />
        </mxCell>
        <mxCell id="vFeSSWeZ5WAn9ENOsXQQ-19" value="APP HUB Deployment" style="rounded=1;whiteSpace=wrap;html=1;" parent="vFeSSWeZ5WAn9ENOsXQQ-1" vertex="1">
          <mxGeometry x="520" y="20" width="200" height="60" as="geometry" />
        </mxCell>
        <mxCell id="vFeSSWeZ5WAn9ENOsXQQ-20" value="" style="rounded=1;whiteSpace=wrap;html=1;" parent="vFeSSWeZ5WAn9ENOsXQQ-1" vertex="1">
          <mxGeometry x="89" y="490" width="650" height="220" as="geometry" />
        </mxCell>
        <mxCell id="vFeSSWeZ5WAn9ENOsXQQ-21" value="CMDB" style="text;html=1;resizable=0;autosize=1;align=center;verticalAlign=middle;points=[];fillColor=none;strokeColor=none;rounded=0;" parent="vFeSSWeZ5WAn9ENOsXQQ-1" vertex="1">
          <mxGeometry x="129" y="510" width="50" height="20" as="geometry" />
        </mxCell>
        <mxCell id="vFeSSWeZ5WAn9ENOsXQQ-22" value="业务域/租户-EnOS" style="rounded=0;whiteSpace=wrap;html=1;fillColor=#FFFFCC;" parent="vFeSSWeZ5WAn9ENOsXQQ-1" vertex="1">
          <mxGeometry x="229" y="500" width="200" height="40" as="geometry" />
        </mxCell>
        <mxCell id="vFeSSWeZ5WAn9ENOsXQQ-23" value="产品线-EDP&lt;span style=&quot;color: rgba(0 , 0 , 0 , 0) ; font-family: monospace ; font-size: 0px&quot;&gt;%3CmxGraphModel%3E%3Croot%3E%3CmxCell%20id%3D%220%22%2F%3E%3CmxCell%20id%3D%221%22%20parent%3D%220%22%2F%3E%3CmxCell%20id%3D%222%22%20value%3D%22%E4%B8%9A%E5%8A%A1%E5%9F%9F%2F%E7%A7%9F%E6%88%B7%22%20style%3D%22rounded%3D0%3BwhiteSpace%3Dwrap%3Bhtml%3D1%3B%22%20vertex%3D%221%22%20parent%3D%221%22%3E%3CmxGeometry%20x%3D%22210%22%20y%3D%22440%22%20width%3D%22160%22%20height%3D%2240%22%20as%3D%22geometry%22%2F%3E%3C%2FmxCell%3E%3C%2Froot%3E%3C%2FmxGraphModel%3E&lt;/span&gt;" style="rounded=0;whiteSpace=wrap;html=1;fillColor=#FFFFCC;" parent="vFeSSWeZ5WAn9ENOsXQQ-1" vertex="1">
          <mxGeometry x="229" y="550" width="200" height="40" as="geometry" />
        </mxCell>
        <mxCell id="vFeSSWeZ5WAn9ENOsXQQ-24" value="产品-流式计算&lt;span style=&quot;color: rgba(0 , 0 , 0 , 0) ; font-family: monospace ; font-size: 0px&quot;&gt;%3CmxGraphModel%3E%3Croot%3E%3CmxCell%20id%3D%220%22%2F%3E%3CmxCell%20id%3D%221%22%20parent%3D%220%22%2F%3E%3CmxCell%20id%3D%222%22%20value%3D%22%E4%B8%9A%E5%8A%A1%E5%9F%9F%2F%E7%A7%9F%E6%88%B7%22%20style%3D%22rounded%3D0%3BwhiteSpace%3Dwrap%3Bhtml%3D1%3B%22%20vertex%3D%221%22%20parent%3D%221%22%3E%3CmxGeometry%20x%3D%22210%22%20y%3D%22440%22%20width%3D%22160%22%20height%3D%2240%22%20as%3D%22geometry%22%2F%3E%3C%2FmxCell%3E%3C%2Froot%3E%3C%2FmxGraphModel%3E&lt;/span&gt;" style="rounded=0;whiteSpace=wrap;html=1;fillColor=#FFFFCC;" parent="vFeSSWeZ5WAn9ENOsXQQ-1" vertex="1">
          <mxGeometry x="229" y="605" width="200" height="40" as="geometry" />
        </mxCell>
        <mxCell id="vFeSSWeZ5WAn9ENOsXQQ-28" value="" style="edgeStyle=orthogonalEdgeStyle;rounded=0;orthogonalLoop=1;jettySize=auto;html=1;shape=link;" parent="vFeSSWeZ5WAn9ENOsXQQ-1" source="vFeSSWeZ5WAn9ENOsXQQ-25" target="vFeSSWeZ5WAn9ENOsXQQ-26" edge="1">
          <mxGeometry relative="1" as="geometry" />
        </mxCell>
        <mxCell id="vFeSSWeZ5WAn9ENOsXQQ-25" value="应用&lt;br&gt;app name:app version:namespace" style="rounded=0;whiteSpace=wrap;html=1;" parent="vFeSSWeZ5WAn9ENOsXQQ-1" vertex="1">
          <mxGeometry x="229" y="660" width="200" height="40" as="geometry" />
        </mxCell>
        <mxCell id="vFeSSWeZ5WAn9ENOsXQQ-26" value="Chart&lt;br&gt;name:version" style="rounded=0;whiteSpace=wrap;html=1;" parent="vFeSSWeZ5WAn9ENOsXQQ-1" vertex="1">
          <mxGeometry x="469" y="660" width="220" height="40" as="geometry" />
        </mxCell>
        <mxCell id="vFeSSWeZ5WAn9ENOsXQQ-27" value="" style="endArrow=none;html=1;rounded=0;" parent="vFeSSWeZ5WAn9ENOsXQQ-1" edge="1">
          <mxGeometry width="50" height="50" relative="1" as="geometry">
            <mxPoint y="400" as="sourcePoint" />
            <mxPoint x="820" y="400" as="targetPoint" />
          </mxGeometry>
        </mxCell>
        <mxCell id="oLpoD4cQ5aCwbrGnfq9a-0" value="部署工具" style="rounded=0;whiteSpace=wrap;html=1;" vertex="1" parent="vFeSSWeZ5WAn9ENOsXQQ-1">
          <mxGeometry x="150" y="410" width="500" height="60" as="geometry" />
        </mxCell>
        <mxCell id="oLpoD4cQ5aCwbrGnfq9a-2" value="" style="shape=flexArrow;endArrow=classic;html=1;rounded=0;" edge="1" parent="vFeSSWeZ5WAn9ENOsXQQ-1">
          <mxGeometry width="50" height="50" relative="1" as="geometry">
            <mxPoint x="270" y="440" as="sourcePoint" />
            <mxPoint x="330" y="500" as="targetPoint" />
            <Array as="points">
              <mxPoint x="310" y="480" />
            </Array>
          </mxGeometry>
        </mxCell>
      </root>
    </mxGraphModel>
  </diagram>
  <diagram id="2DFxstpW6a6M23Osf1Tq" name="startbucks report">
    <mxGraphModel dx="1113" dy="701" grid="1" gridSize="10" guides="1" tooltips="1" connect="1" arrows="1" fold="1" page="1" pageScale="1" pageWidth="827" pageHeight="1169" math="0" shadow="0">
      <root>
        <mxCell id="6OR5ISlM91Lcezgp2fTQ-0" />
        <mxCell id="6OR5ISlM91Lcezgp2fTQ-1" parent="6OR5ISlM91Lcezgp2fTQ-0" />
        <mxCell id="6OR5ISlM91Lcezgp2fTQ-2" value="Edge" style="rounded=0;whiteSpace=wrap;html=1;" vertex="1" parent="6OR5ISlM91Lcezgp2fTQ-1">
          <mxGeometry x="20" y="10" width="580" height="70" as="geometry" />
        </mxCell>
        <mxCell id="6OR5ISlM91Lcezgp2fTQ-3" value="Device connection managemnet&lt;span style=&quot;color: rgba(0 , 0 , 0 , 0) ; font-family: monospace ; font-size: 0px&quot;&gt;%3CmxGraphModel%3E%3Croot%3E%3CmxCell%20id%3D%220%22%2F%3E%3CmxCell%20id%3D%221%22%20parent%3D%220%22%2F%3E%3CmxCell%20id%3D%222%22%20value%3D%22Edge%22%20style%3D%22rounded%3D0%3BwhiteSpace%3Dwrap%3Bhtml%3D1%3B%22%20vertex%3D%221%22%20parent%3D%221%22%3E%3CmxGeometry%20x%3D%22120%22%20y%3D%2270%22%20width%3D%22580%22%20height%3D%2270%22%20as%3D%22geometry%22%2F%3E%3C%2FmxCell%3E%3C%2Froot%3E%3C%2FmxGraphModel%3E&lt;/span&gt;" style="rounded=0;whiteSpace=wrap;html=1;" vertex="1" parent="6OR5ISlM91Lcezgp2fTQ-1">
          <mxGeometry x="20" y="90" width="580" height="70" as="geometry" />
        </mxCell>
        <mxCell id="6OR5ISlM91Lcezgp2fTQ-4" value="Enterprise data platform" style="rounded=0;whiteSpace=wrap;html=1;" vertex="1" parent="6OR5ISlM91Lcezgp2fTQ-1">
          <mxGeometry x="20" y="170" width="580" height="70" as="geometry" />
        </mxCell>
        <mxCell id="6OR5ISlM91Lcezgp2fTQ-6" value="EnOS PaaS" style="rounded=0;whiteSpace=wrap;html=1;" vertex="1" parent="6OR5ISlM91Lcezgp2fTQ-1">
          <mxGeometry x="20" y="250" width="580" height="70" as="geometry" />
        </mxCell>
        <mxCell id="6OR5ISlM91Lcezgp2fTQ-7" value="EnOS IaaS" style="rounded=0;whiteSpace=wrap;html=1;" vertex="1" parent="6OR5ISlM91Lcezgp2fTQ-1">
          <mxGeometry x="20" y="330" width="580" height="70" as="geometry" />
        </mxCell>
        <mxCell id="6OR5ISlM91Lcezgp2fTQ-8" value="EOC" style="rounded=0;whiteSpace=wrap;html=1;" vertex="1" parent="6OR5ISlM91Lcezgp2fTQ-1">
          <mxGeometry x="610" y="10" width="200" height="390" as="geometry" />
        </mxCell>
        <mxCell id="6OR5ISlM91Lcezgp2fTQ-9" value="" style="rounded=0;whiteSpace=wrap;html=1;" vertex="1" parent="6OR5ISlM91Lcezgp2fTQ-1">
          <mxGeometry x="20" y="410" width="800" height="240" as="geometry" />
        </mxCell>
        <mxCell id="6OR5ISlM91Lcezgp2fTQ-10" value="资源管理" style="whiteSpace=wrap;html=1;aspect=fixed;" vertex="1" parent="6OR5ISlM91Lcezgp2fTQ-1">
          <mxGeometry x="60" y="440" width="80" height="80" as="geometry" />
        </mxCell>
        <mxCell id="6OR5ISlM91Lcezgp2fTQ-11" value="告警管理" style="whiteSpace=wrap;html=1;aspect=fixed;" vertex="1" parent="6OR5ISlM91Lcezgp2fTQ-1">
          <mxGeometry x="190" y="440" width="80" height="80" as="geometry" />
        </mxCell>
        <mxCell id="6OR5ISlM91Lcezgp2fTQ-12" value="监控管理" style="whiteSpace=wrap;html=1;aspect=fixed;" vertex="1" parent="6OR5ISlM91Lcezgp2fTQ-1">
          <mxGeometry x="330" y="440" width="80" height="80" as="geometry" />
        </mxCell>
        <mxCell id="6OR5ISlM91Lcezgp2fTQ-13" value="通道管理" style="whiteSpace=wrap;html=1;aspect=fixed;" vertex="1" parent="6OR5ISlM91Lcezgp2fTQ-1">
          <mxGeometry x="470" y="440" width="80" height="80" as="geometry" />
        </mxCell>
        <mxCell id="6OR5ISlM91Lcezgp2fTQ-14" value="..." style="whiteSpace=wrap;html=1;aspect=fixed;" vertex="1" parent="6OR5ISlM91Lcezgp2fTQ-1">
          <mxGeometry x="610" y="440" width="80" height="80" as="geometry" />
        </mxCell>
      </root>
    </mxGraphModel>
  </diagram>
  <diagram id="RAmHXABtfs3W4PS-WgA5" name="Notice-GW arch">
    <mxGraphModel dx="946" dy="505" grid="1" gridSize="10" guides="1" tooltips="1" connect="1" arrows="1" fold="1" page="1" pageScale="1" pageWidth="827" pageHeight="1169" math="0" shadow="0">
      <root>
        <mxCell id="RP-yMJTvsMSe-JL7LUhW-0" />
        <mxCell id="RP-yMJTvsMSe-JL7LUhW-1" parent="RP-yMJTvsMSe-JL7LUhW-0" />
        <mxCell id="RP-yMJTvsMSe-JL7LUhW-34" value="" style="rounded=0;whiteSpace=wrap;html=1;fontSize=18;" vertex="1" parent="RP-yMJTvsMSe-JL7LUhW-1">
          <mxGeometry x="414" y="495" width="200" height="130" as="geometry" />
        </mxCell>
        <mxCell id="RP-yMJTvsMSe-JL7LUhW-30" value="" style="rounded=0;whiteSpace=wrap;html=1;fontSize=18;" vertex="1" parent="RP-yMJTvsMSe-JL7LUhW-1">
          <mxGeometry x="170" y="500" width="200" height="130" as="geometry" />
        </mxCell>
        <mxCell id="RP-yMJTvsMSe-JL7LUhW-15" value="" style="rounded=0;whiteSpace=wrap;html=1;fontSize=18;" vertex="1" parent="RP-yMJTvsMSe-JL7LUhW-1">
          <mxGeometry x="490" y="220" width="220" height="130" as="geometry" />
        </mxCell>
        <mxCell id="RP-yMJTvsMSe-JL7LUhW-16" value="腾讯-新加坡" style="text;html=1;strokeColor=none;fillColor=none;align=center;verticalAlign=middle;whiteSpace=wrap;rounded=0;fontSize=18;" vertex="1" parent="RP-yMJTvsMSe-JL7LUhW-1">
          <mxGeometry x="520" y="230" width="100" height="30" as="geometry" />
        </mxCell>
        <mxCell id="RP-yMJTvsMSe-JL7LUhW-13" value="" style="rounded=0;whiteSpace=wrap;html=1;fontSize=18;" vertex="1" parent="RP-yMJTvsMSe-JL7LUhW-1">
          <mxGeometry x="20" y="250" width="230" height="120" as="geometry" />
        </mxCell>
        <mxCell id="RP-yMJTvsMSe-JL7LUhW-23" style="edgeStyle=orthogonalEdgeStyle;rounded=0;orthogonalLoop=1;jettySize=auto;html=1;entryX=0;entryY=0;entryDx=0;entryDy=52.5;entryPerimeter=0;fontSize=18;" edge="1" parent="RP-yMJTvsMSe-JL7LUhW-1" source="RP-yMJTvsMSe-JL7LUhW-3" target="RP-yMJTvsMSe-JL7LUhW-20">
          <mxGeometry relative="1" as="geometry" />
        </mxCell>
        <mxCell id="RP-yMJTvsMSe-JL7LUhW-37" style="edgeStyle=orthogonalEdgeStyle;rounded=0;orthogonalLoop=1;jettySize=auto;html=1;fontSize=18;entryX=0;entryY=0.75;entryDx=0;entryDy=0;" edge="1" parent="RP-yMJTvsMSe-JL7LUhW-1" source="RP-yMJTvsMSe-JL7LUhW-3" target="RP-yMJTvsMSe-JL7LUhW-25">
          <mxGeometry relative="1" as="geometry">
            <mxPoint x="100" y="598" as="targetPoint" />
            <Array as="points">
              <mxPoint x="150" y="575" />
            </Array>
          </mxGeometry>
        </mxCell>
        <mxCell id="RP-yMJTvsMSe-JL7LUhW-3" value="Notice-GW01" style="rounded=0;whiteSpace=wrap;html=1;fillColor=#FFFF00;" vertex="1" parent="RP-yMJTvsMSe-JL7LUhW-1">
          <mxGeometry x="85" y="290" width="120" height="60" as="geometry" />
        </mxCell>
        <mxCell id="RP-yMJTvsMSe-JL7LUhW-24" style="edgeStyle=orthogonalEdgeStyle;rounded=0;orthogonalLoop=1;jettySize=auto;html=1;entryX=1;entryY=0;entryDx=0;entryDy=52.5;entryPerimeter=0;fontSize=18;" edge="1" parent="RP-yMJTvsMSe-JL7LUhW-1" source="RP-yMJTvsMSe-JL7LUhW-4" target="RP-yMJTvsMSe-JL7LUhW-20">
          <mxGeometry relative="1" as="geometry" />
        </mxCell>
        <mxCell id="RP-yMJTvsMSe-JL7LUhW-38" style="edgeStyle=orthogonalEdgeStyle;rounded=0;orthogonalLoop=1;jettySize=auto;html=1;entryX=1;entryY=0.5;entryDx=0;entryDy=0;fontSize=18;" edge="1" parent="RP-yMJTvsMSe-JL7LUhW-1" source="RP-yMJTvsMSe-JL7LUhW-4" target="RP-yMJTvsMSe-JL7LUhW-32">
          <mxGeometry relative="1" as="geometry" />
        </mxCell>
        <mxCell id="RP-yMJTvsMSe-JL7LUhW-4" value="Notice-GW02" style="rounded=0;whiteSpace=wrap;html=1;fillColor=#FFFF00;" vertex="1" parent="RP-yMJTvsMSe-JL7LUhW-1">
          <mxGeometry x="560" y="270" width="120" height="60" as="geometry" />
        </mxCell>
        <mxCell id="RP-yMJTvsMSe-JL7LUhW-10" style="edgeStyle=orthogonalEdgeStyle;rounded=0;orthogonalLoop=1;jettySize=auto;html=1;fontSize=18;" edge="1" parent="RP-yMJTvsMSe-JL7LUhW-1" source="RP-yMJTvsMSe-JL7LUhW-5" target="RP-yMJTvsMSe-JL7LUhW-9">
          <mxGeometry relative="1" as="geometry" />
        </mxCell>
        <mxCell id="RP-yMJTvsMSe-JL7LUhW-5" value="" style="shape=actor;whiteSpace=wrap;html=1;" vertex="1" parent="RP-yMJTvsMSe-JL7LUhW-1">
          <mxGeometry x="310" width="40" height="60" as="geometry" />
        </mxCell>
        <mxCell id="RP-yMJTvsMSe-JL7LUhW-11" style="edgeStyle=orthogonalEdgeStyle;rounded=0;orthogonalLoop=1;jettySize=auto;html=1;entryX=0.5;entryY=0;entryDx=0;entryDy=0;fontSize=18;" edge="1" parent="RP-yMJTvsMSe-JL7LUhW-1" source="RP-yMJTvsMSe-JL7LUhW-6" target="RP-yMJTvsMSe-JL7LUhW-9">
          <mxGeometry relative="1" as="geometry" />
        </mxCell>
        <mxCell id="RP-yMJTvsMSe-JL7LUhW-6" value="" style="shape=actor;whiteSpace=wrap;html=1;" vertex="1" parent="RP-yMJTvsMSe-JL7LUhW-1">
          <mxGeometry x="380" width="40" height="60" as="geometry" />
        </mxCell>
        <mxCell id="RP-yMJTvsMSe-JL7LUhW-7" value="&lt;font style=&quot;font-size: 18px&quot;&gt;China&lt;/font&gt;" style="text;html=1;strokeColor=none;fillColor=none;align=center;verticalAlign=middle;whiteSpace=wrap;rounded=0;" vertex="1" parent="RP-yMJTvsMSe-JL7LUhW-1">
          <mxGeometry x="10" y="30" width="60" height="30" as="geometry" />
        </mxCell>
        <mxCell id="RP-yMJTvsMSe-JL7LUhW-8" value="&lt;font style=&quot;font-size: 18px&quot;&gt;Abroad&lt;/font&gt;" style="text;html=1;strokeColor=none;fillColor=none;align=center;verticalAlign=middle;whiteSpace=wrap;rounded=0;" vertex="1" parent="RP-yMJTvsMSe-JL7LUhW-1">
          <mxGeometry x="710" y="30" width="60" height="30" as="geometry" />
        </mxCell>
        <mxCell id="RP-yMJTvsMSe-JL7LUhW-18" style="edgeStyle=orthogonalEdgeStyle;rounded=0;orthogonalLoop=1;jettySize=auto;html=1;entryX=0.433;entryY=-0.133;entryDx=0;entryDy=0;entryPerimeter=0;fontSize=18;" edge="1" parent="RP-yMJTvsMSe-JL7LUhW-1" source="RP-yMJTvsMSe-JL7LUhW-9" target="RP-yMJTvsMSe-JL7LUhW-14">
          <mxGeometry relative="1" as="geometry" />
        </mxCell>
        <mxCell id="RP-yMJTvsMSe-JL7LUhW-19" style="edgeStyle=orthogonalEdgeStyle;rounded=0;orthogonalLoop=1;jettySize=auto;html=1;fontSize=18;" edge="1" parent="RP-yMJTvsMSe-JL7LUhW-1" source="RP-yMJTvsMSe-JL7LUhW-9">
          <mxGeometry relative="1" as="geometry">
            <mxPoint x="620" y="220" as="targetPoint" />
          </mxGeometry>
        </mxCell>
        <mxCell id="RP-yMJTvsMSe-JL7LUhW-9" value="Notice-GW.envisioniot.com" style="text;html=1;strokeColor=none;fillColor=#FFFF00;align=center;verticalAlign=middle;whiteSpace=wrap;rounded=0;fontSize=18;" vertex="1" parent="RP-yMJTvsMSe-JL7LUhW-1">
          <mxGeometry x="250" y="180" width="230" height="30" as="geometry" />
        </mxCell>
        <mxCell id="RP-yMJTvsMSe-JL7LUhW-12" value="Smart DNS" style="text;html=1;strokeColor=none;fillColor=#FFFF00;align=center;verticalAlign=middle;whiteSpace=wrap;rounded=0;fontSize=18;" vertex="1" parent="RP-yMJTvsMSe-JL7LUhW-1">
          <mxGeometry x="414" y="90" width="106" height="30" as="geometry" />
        </mxCell>
        <mxCell id="RP-yMJTvsMSe-JL7LUhW-14" value="腾讯-上海" style="text;html=1;strokeColor=none;fillColor=none;align=center;verticalAlign=middle;whiteSpace=wrap;rounded=0;fontSize=18;" vertex="1" parent="RP-yMJTvsMSe-JL7LUhW-1">
          <mxGeometry x="40" y="250" width="90" height="30" as="geometry" />
        </mxCell>
        <mxCell id="RP-yMJTvsMSe-JL7LUhW-20" value="DB" style="shape=cylinder3;whiteSpace=wrap;html=1;boundedLbl=1;backgroundOutline=1;size=15;fontSize=18;fillColor=#FFFF00;" vertex="1" parent="RP-yMJTvsMSe-JL7LUhW-1">
          <mxGeometry x="335" y="400" width="60" height="80" as="geometry" />
        </mxCell>
        <mxCell id="RP-yMJTvsMSe-JL7LUhW-28" style="edgeStyle=orthogonalEdgeStyle;rounded=0;orthogonalLoop=1;jettySize=auto;html=1;fontSize=18;" edge="1" parent="RP-yMJTvsMSe-JL7LUhW-1" source="RP-yMJTvsMSe-JL7LUhW-25">
          <mxGeometry relative="1" as="geometry">
            <mxPoint x="385" y="670" as="targetPoint" />
          </mxGeometry>
        </mxCell>
        <mxCell id="RP-yMJTvsMSe-JL7LUhW-25" value="Tencent service" style="rounded=0;whiteSpace=wrap;html=1;fontSize=18;" vertex="1" parent="RP-yMJTvsMSe-JL7LUhW-1">
          <mxGeometry x="210" y="530" width="120" height="60" as="geometry" />
        </mxCell>
        <mxCell id="RP-yMJTvsMSe-JL7LUhW-29" value="Message out" style="rounded=1;whiteSpace=wrap;html=1;fontSize=18;" vertex="1" parent="RP-yMJTvsMSe-JL7LUhW-1">
          <mxGeometry x="325" y="670" width="120" height="60" as="geometry" />
        </mxCell>
        <mxCell id="RP-yMJTvsMSe-JL7LUhW-31" value="腾讯-上海" style="text;html=1;strokeColor=none;fillColor=none;align=center;verticalAlign=middle;whiteSpace=wrap;rounded=0;fontSize=18;" vertex="1" parent="RP-yMJTvsMSe-JL7LUhW-1">
          <mxGeometry x="200" y="500" width="100" height="30" as="geometry" />
        </mxCell>
        <mxCell id="RP-yMJTvsMSe-JL7LUhW-32" value="Tencent service" style="rounded=0;whiteSpace=wrap;html=1;fontSize=18;" vertex="1" parent="RP-yMJTvsMSe-JL7LUhW-1">
          <mxGeometry x="440" y="530" width="120" height="60" as="geometry" />
        </mxCell>
        <mxCell id="RP-yMJTvsMSe-JL7LUhW-33" value="腾讯-新加坡" style="text;html=1;strokeColor=none;fillColor=none;align=center;verticalAlign=middle;whiteSpace=wrap;rounded=0;fontSize=18;" vertex="1" parent="RP-yMJTvsMSe-JL7LUhW-1">
          <mxGeometry x="450" y="500" width="100" height="30" as="geometry" />
        </mxCell>
      </root>
    </mxGraphModel>
  </diagram>
</mxfile>
